<svg version="1.1" id="Layer_1" xmlns="http://www.w3.org/2000/svg" xmlns:xlink="http://www.w3.org/1999/xlink" x="0px" y="0px"
	 width="100%" viewBox="0 0 499 500" enable-background="new 0 0 499 500" xml:space="preserve">

<path fill="#5A1134" opacity="1.000000" stroke="none" 
	d="
M387.216522,239.022583 
	C393.350739,242.979538 393.839691,251.022064 388.163788,259.166321 
	C393.499146,265.095886 397.771088,271.649780 395.278107,280.354279 
	C393.650299,286.037903 390.552338,290.505005 384.311096,293.039246 
	C383.396698,293.438171 383.077972,293.655273 382.759247,293.872345 
	C382.759247,293.872345 382.519714,293.919678 381.902222,293.922302 
	C368.201538,293.946472 355.118378,293.968018 342.035217,293.989563 
	C342.035217,293.989563 341.996277,294.011749 341.868469,293.788635 
	C341.533417,293.318573 341.280792,293.133698 340.982788,293.010864 
	C340.982788,293.010864 341.001221,292.998779 340.882324,292.801270 
	C340.573730,292.342072 340.329407,292.149780 340.030518,292.026886 
	C340.030518,292.026886 339.975983,292.010132 340.021271,291.521545 
	C340.044861,286.634705 340.023163,282.236420 340.001434,277.838135 
	C341.581635,276.426422 343.161804,275.014679 345.049194,273.328491 
	C339.133209,266.678589 336.037262,259.074341 339.621735,250.112839 
	C341.894897,244.429749 345.902924,240.499069 352.896393,239.060410 
	C364.902069,239.037689 376.059296,239.030136 387.216522,239.022583 
M345.526306,255.968613 
	C345.442078,265.748077 349.954041,270.500793 359.605652,270.673309 
	C365.097198,270.771484 370.633453,270.357910 376.059479,270.971680 
	C377.793976,271.167877 380.445557,273.901581 380.472351,275.511017 
	C380.498383,277.072845 377.954437,279.387878 376.064178,280.085693 
	C373.859314,280.899628 371.139465,280.336365 368.643036,280.339508 
	C361.207367,280.348816 353.771698,280.342834 346.277863,280.342834 
	C346.277863,283.356140 346.277863,285.556824 346.277863,288.184631 
	C356.354889,288.184631 365.987030,288.298737 375.615112,288.149506 
	C383.684021,288.024414 388.768829,283.009918 388.785339,275.554688 
	C388.801727,268.160645 383.634430,263.038666 375.702972,262.812012 
	C370.380249,262.659912 365.050201,262.733063 359.723663,262.758301 
	C356.117249,262.775421 353.303802,261.746307 353.436035,257.520355 
	C353.559357,253.578568 356.307526,252.740967 359.680939,252.764847 
	C366.505463,252.813171 373.331085,252.725052 380.155365,252.788834 
	C382.907684,252.814545 384.955475,252.661896 384.967102,248.917755 
	C384.977966,245.413971 383.453857,244.762650 380.432526,244.823669 
	C373.277557,244.968170 366.116730,244.799316 358.960205,244.897263 
	C351.525482,244.999008 347.753387,247.996246 345.526306,255.968613 
z"/>
<path fill="#5B1133" opacity="1.000000" stroke="none" 
	d="
M290.863129,239.224091 
	C291.798950,239.927490 292.734802,240.630890 293.830872,242.060028 
	C293.995117,247.180664 293.999176,251.575607 294.003235,255.970535 
	C294.003235,255.970535 294.030090,256.012543 293.808350,256.150940 
	C293.344177,256.503510 293.144958,256.752319 292.988953,257.035706 
	C292.988953,257.035706 292.977112,256.978119 292.802124,257.126373 
	C292.370117,257.491089 292.157166,257.744568 291.988251,258.035065 
	C291.988251,258.035065 291.994507,257.978027 291.764648,258.015198 
	C291.638641,258.846405 291.742493,259.640381 291.846344,260.434387 
	C303.988556,269.283966 300.683472,289.312317 285.013794,293.968231 
	C271.442932,293.987366 258.710876,293.996674 245.978851,294.005981 
	C245.978851,294.005981 246.007019,293.985443 245.866486,293.799438 
	C245.510254,293.359711 245.257095,293.151642 244.966476,292.989197 
	C244.966476,292.989197 245.022476,292.977020 244.875000,292.800720 
	C244.511932,292.367126 244.258377,292.155304 243.966827,291.988922 
	C243.966827,291.988922 244.022064,291.984619 243.924316,291.720825 
	C243.484619,290.960785 243.142685,290.464569 242.800735,289.968323 
	C240.604187,281.154572 241.610153,278.228210 249.067230,273.132812 
	C244.054871,268.180511 241.020370,262.340576 242.038498,255.079041 
	C243.029526,248.010849 246.290039,242.664185 253.811752,239.881012 
	C254.634644,239.511902 254.894714,239.327103 255.142334,239.124756 
	C255.142334,239.124756 255.405472,239.068604 256.037689,239.070679 
	C268.067657,239.123215 279.465393,239.173645 290.863129,239.224091 
M249.002747,256.707489 
	C249.273193,265.944977 253.731354,270.477600 262.892578,270.670044 
	C267.888794,270.774994 272.888916,270.726685 277.886993,270.695923 
	C281.184387,270.675659 284.100189,271.309479 284.219971,275.335571 
	C284.350586,279.724426 281.247253,280.343353 277.771240,280.337952 
	C269.774017,280.325531 261.775726,280.416382 253.780014,280.308167 
	C250.807617,280.267914 249.124557,280.868866 249.164795,284.402283 
	C249.201797,287.651550 250.657745,288.271393 253.461029,288.234711 
	C262.123291,288.121399 270.790741,288.319641 279.450623,288.135223 
	C287.268524,287.968750 292.142059,283.057983 292.226440,275.709717 
	C292.313110,268.162628 287.318970,263.070648 279.350006,262.815033 
	C274.356628,262.654846 269.354431,262.757690 264.356201,262.763031 
	C260.678070,262.766968 256.919769,262.676636 257.000183,257.609375 
	C257.075043,252.889374 260.610535,252.740616 264.134552,252.757874 
	C270.132385,252.787247 276.130463,252.778687 282.128387,252.763687 
	C288.779358,252.747055 289.103912,252.310516 287.500366,244.885284 
	C279.207642,244.885284 270.756592,244.795517 262.308380,244.911987 
	C254.744110,245.016296 250.899033,248.307693 249.002747,256.707489 
z"/>
<path fill="#5B1234" opacity="1.000000" stroke="none" 
	d="
M179.046112,252.749893 
	C182.479416,247.110352 187.003464,242.716492 193.878693,240.096237 
	C195.071304,239.638748 195.646454,239.387558 196.221588,239.136368 
	C196.221588,239.136368 196.453140,239.082596 197.068787,239.087341 
	C207.222076,239.078720 216.759720,239.065353 226.297379,239.051987 
	C228.135544,240.714447 229.973709,242.376907 231.863190,244.849945 
	C231.940842,260.782043 231.967178,275.903534 231.993530,291.025024 
	C231.993530,291.025024 231.967575,290.982697 231.786484,291.178162 
	C231.390625,291.687988 231.175858,292.002380 230.961090,292.316772 
	C226.323502,296.699249 220.529343,295.567444 215.585541,294.160400 
	C213.416107,293.542969 212.451447,288.692413 210.882324,285.108826 
	C202.185410,280.058014 196.171082,283.124481 195.998001,292.013275 
	C195.998001,292.013275 195.987518,291.992615 195.792435,292.125244 
	C195.339767,292.469330 195.139282,292.725464 194.995880,293.026306 
	C194.995880,293.026306 194.982864,292.982483 194.797516,293.110565 
	C194.348892,293.432220 194.145660,293.675903 194.002441,293.969666 
	C194.002441,293.969666 194.004288,294.012970 193.523834,293.977539 
	C188.375198,293.963348 183.707001,293.984589 179.038803,294.005829 
	C179.038803,294.005829 178.987732,294.029816 178.855576,293.800781 
	C178.514603,293.325012 178.263718,293.133362 177.970795,292.996765 
	C177.970795,292.996765 178.017212,292.981934 177.877686,292.798462 
	C177.528458,292.355347 177.274017,292.151550 176.974808,292.003632 
	C176.974808,292.003632 177.006439,292.000549 177.017914,291.541595 
	C177.355255,279.045715 177.681107,267.008789 178.006958,254.971863 
	C178.006958,254.971863 178.037018,255.016632 178.205597,254.770477 
	C178.598145,253.932831 178.822128,253.341354 179.046112,252.749893 
M207.479462,277.583313 
	C217.203598,277.585205 217.199234,277.585754 218.388657,286.987915 
	C218.423782,287.265656 218.775848,287.503235 219.074615,287.878082 
	C221.082626,287.878082 223.180267,287.878082 225.884094,287.878082 
	C225.884094,274.653015 226.043701,261.713623 225.647110,248.791306 
	C225.605637,247.439377 222.359924,245.237396 220.456284,245.069534 
	C214.838989,244.574265 209.144257,244.754684 203.488571,244.939209 
	C191.521210,245.329681 183.215683,253.526611 182.717575,265.529907 
	C182.462326,271.680908 182.714844,277.851379 182.592407,284.010193 
	C182.536499,286.822235 183.263138,288.263611 186.481323,288.263153 
	C189.617203,288.262695 190.598129,287.015533 190.447235,284.106506 
	C190.346100,282.156464 190.588821,280.188660 190.706940,277.583160 
	C196.235855,277.583160 201.360519,277.583160 207.479462,277.583313 
z"/>
<path fill="#5A1134" opacity="1.000000" stroke="none" 
	d="
M107.059448,255.665009 
	C107.059448,255.665009 107.079475,255.458755 107.278831,255.053864 
	C107.667839,253.984238 107.857491,253.319519 108.047134,252.654785 
	C113.073250,243.457291 119.933105,237.252045 131.288208,237.978699 
	C135.266220,238.233246 139.282303,237.861145 143.265793,238.068085 
	C153.125824,238.580322 160.597733,242.910690 164.970108,252.767670 
	C165.346375,254.030365 165.606293,254.635742 165.866211,255.241135 
	C165.866211,255.241135 165.922165,255.462006 165.919403,256.072266 
	C165.947998,263.503967 165.979340,270.325439 166.010681,277.146881 
	C163.740189,287.601135 154.067169,295.622284 143.199799,295.948120 
	C139.044968,296.072723 134.882812,296.022644 130.725098,295.967346 
	C120.277962,295.828430 110.186821,288.093536 107.073090,277.040161 
	C107.076637,269.352417 107.068039,262.508698 107.059448,255.665009 
M137.448029,244.156418 
	C134.953461,244.181015 132.444885,244.045395 129.967117,244.262131 
	C124.013786,244.782883 118.677826,247.052292 115.958908,252.520004 
	C111.426750,261.634094 111.878685,271.025085 115.695999,280.439331 
	C120.434982,292.126648 152.875519,292.260864 157.178986,280.565918 
	C158.851440,276.020844 159.813263,270.977051 159.916061,266.135315 
	C160.246613,250.567596 153.811920,244.244766 137.448029,244.156418 
z"/>
<path fill="#591136" opacity="1.000000" stroke="none" 
	d="
M308.004761,242.875748 
	C311.046082,239.426147 323.185120,237.164871 326.721771,239.800003 
	C328.071533,240.805695 329.093872,243.109268 329.149323,244.856781 
	C329.567291,258.025269 329.842407,271.202454 329.855225,284.377197 
	C329.859314,288.604919 328.524536,292.733032 324.151917,294.622955 
	C319.553009,296.610718 312.060913,294.584900 308.206940,289.940460 
	C308.041779,273.741486 308.023285,258.308624 308.004761,242.875748 
M314.350647,272.493774 
	C314.351166,275.823700 314.335846,279.153748 314.355652,282.483551 
	C314.393036,288.764984 315.389191,289.391113 321.893188,287.207214 
	C321.893188,273.314423 321.893188,259.404510 321.893188,245.569641 
	C314.610382,244.117096 314.369751,244.292816 314.354919,251.017151 
	C314.339874,257.843506 314.351074,264.669891 314.350647,272.493774 
z"/>
<path fill="#3E1355" opacity="1.000000" stroke="none" 
	d="
M253.076065,146.902359 
	C260.738739,145.867493 267.693817,150.997116 270.223724,158.847336 
	C271.181152,161.818130 272.599670,164.192795 272.492401,167.801559 
	C272.170654,178.626953 265.932343,186.397888 255.044083,187.835037 
	C252.534851,188.166229 250.601456,189.353439 247.450867,188.921844 
	C240.351776,187.949341 236.373627,183.472000 232.091309,179.047195 
	C231.050140,177.971344 231.294495,175.651382 231.028442,173.397461 
	C231.109131,172.891464 231.329529,172.683609 231.587006,172.797913 
	C235.801392,177.072495 237.614258,183.426147 244.352722,184.829224 
	C244.790115,184.506348 244.954987,184.251282 245.012482,183.948700 
	C244.978561,183.948669 244.983780,184.016327 245.170349,184.031708 
	C245.356918,184.047073 245.731201,184.036484 246.073273,184.163910 
	C247.592896,184.542007 248.770432,184.792664 249.979797,185.040756 
	C250.011597,185.038193 249.968491,185.087402 250.068390,185.343597 
	C257.585175,186.666626 262.566162,183.023697 266.741882,177.377548 
	C269.640472,173.458237 271.230682,169.623779 268.385803,165.035522 
	C268.445831,164.994278 268.591034,164.983749 268.862854,164.901611 
	C268.391724,162.855438 267.648773,160.891434 266.902710,158.965546 
	C266.899567,159.003693 266.826447,158.981049 267.069214,158.876450 
	C265.988251,156.728317 264.664459,154.684784 263.158752,152.427246 
	C259.579468,150.567276 256.182129,148.921326 252.857620,147.182129 
	C252.930435,147.088867 253.076065,146.902359 253.076065,146.902359 
z"/>
<path fill="#591136" opacity="1.000000" stroke="none" 
	d="
M236.309387,352.771118 
	C233.474503,348.382446 235.999252,344.160645 241.248322,344.076630 
	C247.494904,343.976624 253.784775,343.659973 259.972290,344.276337 
	C262.339325,344.512085 264.738861,346.816406 266.555145,348.720306 
	C267.096802,349.288116 266.107758,352.039032 265.119843,353.187195 
	C263.269348,355.337830 261.424316,358.282074 257.660889,356.161041 
	C256.919312,355.743103 255.458817,355.444244 255.013443,355.846771 
	C252.321793,358.279510 249.833389,358.542358 247.151947,355.892914 
	C246.786713,355.532043 245.714371,355.337097 245.361603,355.597229 
	C241.243820,358.633240 239.003479,355.518951 236.309387,352.771118 
M239.536346,347.757690 
	C239.342392,349.035736 238.649078,350.547638 239.105042,351.521301 
	C239.503586,352.372314 241.928055,353.315796 242.204971,353.025116 
	C245.893127,349.153992 248.304123,352.830566 250.999847,354.603485 
	C252.838272,353.187042 254.494843,351.910736 256.223175,350.579102 
	C257.365295,351.451508 258.196930,352.529846 259.207031,352.736664 
	C260.267975,352.953888 261.864166,352.690521 262.552887,351.982239 
	C263.218933,351.297272 263.531799,349.490662 263.081268,348.700714 
	C262.551849,347.772491 260.263062,346.687408 260.056641,346.907562 
	C256.292999,350.921204 253.649292,347.268066 250.681763,345.357391 
	C248.075638,348.371399 245.357620,350.141785 241.917007,346.828735 
	C241.677490,346.598114 240.737549,347.094910 239.536346,347.757690 
z"/>
<path fill="#91484B" opacity="1.000000" stroke="none" 
	d="
M253.290390,213.446167 
	C254.390060,215.031525 255.578964,216.383270 255.774597,217.866043 
	C256.232269,221.334839 255.192200,224.307098 251.106003,224.669052 
	C247.263611,225.009399 245.630386,222.353470 245.508835,219.106567 
	C245.380219,215.670807 246.687958,212.831314 250.959808,213.016510 
	C251.618423,213.045059 252.272247,213.184128 253.290390,213.446167 
z"/>
<path fill="#A65244" opacity="1.000000" stroke="none" 
	d="
M194.859650,222.395142 
	C194.593048,220.989624 194.561447,219.902283 194.393768,218.836334 
	C194.030548,216.527359 193.236649,213.557312 196.519058,213.340347 
	C198.804443,213.189255 202.508911,214.216461 203.231873,215.793488 
	C204.160660,217.819519 203.572189,221.630905 202.099030,223.370270 
	C200.538773,225.212418 197.099121,226.173035 194.859650,222.395142 
z"/>
<path fill="#A65244" opacity="1.000000" stroke="none" 
	d="
M273.018494,224.656128 
	C271.782959,223.148727 270.539612,221.739334 270.215607,220.143311 
	C269.797150,218.082184 270.113617,215.871841 270.113617,213.668320 
	C273.638550,212.546967 277.039703,211.714355 278.128143,216.004944 
	C279.758423,222.431320 278.695587,223.942398 273.018494,224.656128 
z"/>
<path fill="#C84B30" opacity="1.000000" stroke="none" 
	d="
M304.900452,223.964828 
	C302.813171,223.542938 301.043579,223.168564 297.967987,222.517899 
	C297.967987,221.162018 297.707306,218.293457 298.110046,215.521301 
	C298.250153,214.556763 300.101349,213.071716 301.047150,213.159515 
	C302.810303,213.323181 305.821411,214.292480 305.942474,215.231949 
	C306.309479,218.080368 305.543060,221.074799 304.900452,223.964828 
z"/>
<path fill="#3E1355" opacity="1.000000" stroke="none" 
	d="
M230.998886,172.995361 
	C230.290985,170.218109 229.339462,167.357040 229.174698,164.451355 
	C228.894531,159.510345 235.268738,151.777496 239.256500,148.948059 
	C242.467422,146.669830 245.860123,146.602844 249.175049,145.629028 
	C250.191315,145.330490 251.513794,146.074402 252.886063,146.621643 
	C253.076065,146.902359 252.930435,147.088867 252.562744,147.199799 
	C251.465088,147.891418 250.735107,148.472122 249.995392,149.031799 
	C249.985672,149.010757 250.031036,149.011536 249.652374,148.978271 
	C244.903748,147.833359 241.520111,149.322815 238.918304,152.905899 
	C238.919128,152.939819 238.852005,152.931381 238.560333,153.080887 
	C237.180801,154.219711 235.546310,155.016113 235.115356,156.237259 
	C234.123993,159.046448 233.718140,162.062271 233.047470,165.004898 
	C233.020294,165.015564 233.027359,164.957809 232.950668,165.322327 
	C232.359161,168.019104 231.844345,170.351364 231.329529,172.683609 
	C231.329529,172.683609 231.109131,172.891464 230.998886,172.995361 
z"/>
<path fill="#A65244" opacity="1.000000" stroke="none" 
	d="
M285.316162,217.321136 
	C286.286835,215.542007 287.164551,214.098999 288.042236,212.655975 
	C288.581207,212.651260 289.120178,212.646530 289.659149,212.641815 
	C290.941925,216.358368 292.224670,220.074921 293.348511,223.331024 
	C289.882996,223.331024 287.375488,223.331024 283.821289,223.331024 
	C284.171478,221.913818 284.697327,219.785538 285.316162,217.321136 
z"/>
<path fill="#91484B" opacity="1.000000" stroke="none" 
	d="
M222.291931,213.038269 
	C223.899231,213.745239 225.139313,214.483170 226.379410,215.221100 
	C224.172791,217.949921 229.699814,222.294113 224.694702,224.170425 
	C223.011703,224.801346 220.743149,223.870331 218.742218,223.653198 
	C218.736496,223.158676 218.730759,222.664169 218.725037,222.169647 
	C219.656860,221.672531 220.588684,221.175415 221.621155,220.624619 
	C219.456268,218.049454 216.217163,215.331116 222.291931,213.038269 
z"/>
<path fill="#A65244" opacity="1.000000" stroke="none" 
	d="
M299.207611,313.993134 
	C299.894592,312.116211 300.297791,309.760162 301.337463,309.434174 
	C302.708923,309.004150 305.760345,309.832672 306.008789,310.709656 
	C306.683319,313.090485 306.748962,315.935822 306.013916,318.268646 
	C305.749695,319.107239 302.290527,319.643707 300.712799,319.096802 
	C299.782043,318.774200 299.681152,316.057404 299.207611,313.993134 
z"/>
<path fill="#91484B" opacity="1.000000" stroke="none" 
	d="
M222.797012,319.412048 
	C217.315552,319.345673 215.631607,317.857513 216.156128,313.633789 
	C216.718475,309.105316 219.580856,308.519257 223.794678,309.746674 
	C223.562027,312.937866 223.330780,316.109528 222.797012,319.412048 
z"/>
<path fill="#A65244" opacity="1.000000" stroke="none" 
	d="
M236.184341,309.523499 
	C236.901077,311.415222 237.501999,313.288208 237.534790,315.171082 
	C237.557892,316.497162 236.809021,317.836731 236.404816,319.170258 
	C235.246918,318.306244 234.089005,317.442200 232.633850,316.356384 
	C232.175781,317.193512 231.537933,318.359131 230.900101,319.524780 
	C230.429153,319.527252 229.958206,319.529724 229.487259,319.532196 
	C229.257980,316.262421 229.028687,312.992615 228.799408,309.722809 
	C229.181015,309.500366 229.562637,309.277924 229.944260,309.055481 
	C231.025070,310.000366 232.105881,310.945282 233.444244,312.115326 
	C234.198242,311.290131 235.012009,310.399567 236.184341,309.523499 
z"/>
<path fill="#91484B" opacity="1.000000" stroke="none" 
	d="
M236.637085,221.003052 
	C238.235611,221.359177 239.474442,221.536697 240.851700,221.734039 
	C238.923157,224.953537 236.834763,225.501480 234.114166,223.784897 
	C231.865143,222.365845 231.134384,217.115067 233.155930,214.900223 
	C235.448547,212.388428 238.062332,212.053116 240.689026,214.619186 
	C240.234741,217.648361 233.027542,215.501526 236.637085,221.003052 
z"/>
<path fill="#A65244" opacity="1.000000" stroke="none" 
	d="
M194.800049,319.003815 
	C194.277084,316.062378 194.059341,313.303101 193.874741,310.963562 
	C196.716858,308.124878 200.100052,315.797333 202.532303,309.727783 
	C202.532303,312.745819 202.532303,315.763885 202.532303,319.142059 
	C199.995071,318.962891 197.354065,315.456787 194.800049,319.003815 
z"/>
<path fill="#91484B" opacity="1.000000" stroke="none" 
	d="
M268.886780,319.071228 
	C266.533447,318.504028 263.303009,318.219696 262.708313,316.817474 
	C261.955994,315.043579 262.766998,311.924835 264.033569,310.230865 
	C264.800720,309.204773 267.706299,309.777588 269.651123,309.632050 
	C269.741852,310.143921 269.832550,310.655823 269.923248,311.167694 
	C268.544830,312.317780 267.166412,313.467865 266.035278,314.411621 
	C267.273682,316.162384 268.226929,317.510010 268.886780,319.071228 
z"/>
<path fill="#3E1355" opacity="1.000000" stroke="none" 
	d="
M177.741928,255.243225 
	C177.681107,267.008789 177.355255,279.045715 177.005737,291.552185 
	C176.395279,290.685272 175.318039,289.355682 175.299194,288.011292 
	C175.146683,277.127472 173.719635,266.138641 177.741928,255.243225 
z"/>
<path fill="#A65244" opacity="1.000000" stroke="none" 
	d="
M288.095093,312.945892 
	C288.757568,312.904480 289.522766,313.061462 290.062103,312.782227 
	C291.370972,312.104584 292.574768,311.224060 293.820892,310.425232 
	C294.218933,311.780090 295.308899,313.448059 294.867676,314.423126 
	C294.008972,316.320740 292.556793,318.289764 290.812164,319.294891 
	C290.008545,319.757904 287.936401,318.019226 286.816528,316.786133 
	C287.494110,315.177612 287.794617,314.061737 288.095093,312.945892 
z"/>
<path fill="#91484B" opacity="1.000000" stroke="none" 
	d="
M247.668579,315.669678 
	C247.253799,317.238342 246.844376,318.421143 246.434952,319.603912 
	C246.034348,319.552734 245.633759,319.501587 245.233170,319.450409 
	C244.439377,316.326233 243.645584,313.202026 242.683304,309.414734 
	C244.696274,309.313385 246.983490,309.198212 249.613922,309.065796 
	C248.848450,311.519287 248.261185,313.401550 247.668579,315.669678 
z"/>
<path fill="#91484B" opacity="1.000000" stroke="none" 
	d="
M273.973145,312.403198 
	C274.743256,311.134125 275.506775,310.275543 276.270325,309.416931 
	C276.763153,310.197296 277.636322,310.956665 277.680664,311.761688 
	C277.842224,314.696259 277.302826,317.883270 283.194885,317.624725 
	C276.152039,321.152344 274.056030,319.578888 273.973145,312.403198 
z"/>
<path fill="#3E1355" opacity="1.000000" stroke="none" 
	d="
M307.723450,243.202271 
	C308.023285,258.308624 308.041779,273.741486 308.025940,289.652252 
	C307.700439,289.551239 307.153107,288.971313 307.155457,288.393585 
	C307.216187,273.438538 307.334106,258.483673 307.723450,243.202271 
z"/>
<path fill="#3E1355" opacity="1.000000" stroke="none" 
	d="
M232.257645,290.696655 
	C231.967178,275.903534 231.940842,260.782043 231.926498,245.160553 
	C232.238007,245.234344 232.800720,245.809128 232.798523,246.381729 
	C232.742203,261.044037 232.626846,275.706146 232.257645,290.696655 
z"/>
<path fill="#3E1355" opacity="1.000000" stroke="none" 
	d="
M342.374756,294.230835 
	C355.118378,293.968018 368.201538,293.946472 381.780426,293.931061 
	C381.689972,294.227814 381.102509,294.774353 380.517792,294.771454 
	C367.916443,294.708649 355.315430,294.584412 342.374756,294.230835 
z"/>
<path fill="#A65244" opacity="1.000000" stroke="none" 
	d="
M210.158981,219.434570 
	C210.714783,217.109985 211.268478,215.175964 211.822174,213.241943 
	C212.204391,215.122574 212.722870,216.988434 212.928757,218.888184 
	C213.117477,220.629639 212.968826,222.407684 212.968826,224.169601 
	C212.335266,224.302277 211.701691,224.434952 211.068130,224.567627 
	C210.764374,222.986801 210.460632,221.405975 210.158981,219.434570 
z"/>
<path fill="#3E1355" opacity="1.000000" stroke="none" 
	d="
M246.295258,294.284637 
	C258.710876,293.996674 271.442932,293.987366 284.653748,293.994293 
	C284.387726,294.315186 283.641571,294.888367 282.898407,294.884430 
	C270.802582,294.820587 258.707153,294.683716 246.295258,294.284637 
z"/>
<path fill="#3E1355" opacity="1.000000" stroke="none" 
	d="
M196.261688,291.719055 
	C196.171082,283.124481 202.185410,280.058014 210.827545,284.707642 
	C208.702545,284.960388 206.546204,285.182495 204.452988,284.913513 
	C199.392441,284.263153 196.252975,285.700806 196.261688,291.719055 
z"/>
<path fill="#3E1355" opacity="1.000000" stroke="none" 
	d="
M290.619568,238.876678 
	C279.465393,239.173645 268.067657,239.123215 256.171783,239.059784 
	C256.901031,238.700867 258.131073,238.047028 259.355408,238.057495 
	C269.696198,238.145996 280.035950,238.355865 290.619568,238.876678 
z"/>
<path fill="#3E1355" opacity="1.000000" stroke="none" 
	d="
M386.881287,238.738037 
	C376.059296,239.030136 364.902069,239.037689 353.254578,239.041290 
	C354.653900,238.691299 356.544739,238.042450 358.432800,238.050369 
	C367.804291,238.089630 377.175049,238.302063 386.881287,238.738037 
z"/>
<path fill="#3E1355" opacity="1.000000" stroke="none" 
	d="
M225.951263,238.768188 
	C216.759720,239.065353 207.222076,239.078720 197.187134,239.076477 
	C199.905304,238.707275 203.119171,238.076553 206.336487,238.058578 
	C212.758392,238.022675 219.182159,238.322968 225.951263,238.768188 
z"/>
<path fill="#3E1355" opacity="1.000000" stroke="none" 
	d="
M166.295090,276.821442 
	C165.979340,270.325439 165.947998,263.503967 165.932007,256.185486 
	C166.158066,262.624298 166.368774,269.560150 166.295090,276.821442 
z"/>
<path fill="#3E1355" opacity="1.000000" stroke="none" 
	d="
M106.777534,256.016479 
	C107.068039,262.508698 107.076637,269.352417 107.053917,276.676971 
	C106.846939,270.227875 106.671280,263.297913 106.777534,256.016479 
z"/>
<path fill="#3E1355" opacity="1.000000" stroke="none" 
	d="
M294.265259,255.704559 
	C293.999176,251.575607 293.995117,247.180664 293.992798,242.307037 
	C294.172089,246.365097 294.349670,250.901840 294.265259,255.704559 
z"/>
<path fill="#3E1355" opacity="1.000000" stroke="none" 
	d="
M179.351837,294.277649 
	C183.707001,293.984589 188.375198,293.963348 193.507202,293.963654 
	C189.202286,294.173309 184.433578,294.361389 179.351837,294.277649 
z"/>
<path fill="#3E1355" opacity="1.000000" stroke="none" 
	d="
M339.718536,278.161713 
	C340.023163,282.236420 340.044861,286.634705 340.028992,291.494110 
	C339.806183,287.465240 339.620911,282.975281 339.718536,278.161713 
z"/>
<path fill="#E8863A" opacity="1.000000" stroke="none" 
	d="
M288.036377,312.645386 
	C287.794617,314.061737 287.494110,315.177612 287.070282,316.619324 
	C286.990173,315.219666 287.033417,313.494080 287.076630,311.768555 
	C287.376984,311.960663 287.677338,312.152771 288.036377,312.645386 
z"/>
<path fill="#3E1355" opacity="1.000000" stroke="none" 
	d="
M291.888336,260.029785 
	C291.742493,259.640381 291.638641,258.846405 291.789185,258.030090 
	C292.005829,258.546875 291.968079,259.086029 291.888336,260.029785 
z"/>
<path fill="#3E1355" opacity="1.000000" stroke="none" 
	d="
M195.890656,239.130081 
	C195.646454,239.387558 195.071304,239.638748 194.187500,239.941208 
	C194.439133,239.702911 194.999420,239.413345 195.890656,239.130081 
z"/>
<path fill="#3E1355" opacity="1.000000" stroke="none" 
	d="
M242.895264,290.264343 
	C243.142685,290.464569 243.484619,290.960785 243.913773,291.746429 
	C243.663925,291.544006 243.326874,291.052155 242.895264,290.264343 
z"/>
<path fill="#3E1355" opacity="1.000000" stroke="none" 
	d="
M107.808929,252.921906 
	C107.857491,253.319519 107.667839,253.984238 107.304047,254.953369 
	C107.276848,254.568176 107.423775,253.878616 107.808929,252.921906 
z"/>
<path fill="#3E1355" opacity="1.000000" stroke="none" 
	d="
M165.872803,254.893906 
	C165.606293,254.635742 165.346375,254.030365 165.029465,253.099792 
	C165.274780,253.365311 165.577087,253.955994 165.872803,254.893906 
z"/>
<path fill="#3E1355" opacity="1.000000" stroke="none" 
	d="
M178.802185,252.968475 
	C178.822128,253.341354 178.598145,253.932831 178.178925,254.774399 
	C178.175201,254.412018 178.366730,253.799545 178.802185,252.968475 
z"/>
<path fill="#3E1355" opacity="1.000000" stroke="none" 
	d="
M194.232361,293.879089 
	C194.145660,293.675903 194.348892,293.432220 194.819305,293.117493 
	C194.935913,293.329895 194.747864,293.593964 194.232361,293.879089 
z"/>
<path fill="#3E1355" opacity="1.000000" stroke="none" 
	d="
M178.071838,293.221008 
	C178.263718,293.133362 178.514603,293.325012 178.850754,293.772949 
	C178.637665,293.907532 178.369263,293.731201 178.071838,293.221008 
z"/>
<path fill="#3E1355" opacity="1.000000" stroke="none" 
	d="
M245.074173,293.219757 
	C245.257095,293.151642 245.510254,293.359711 245.865723,293.816833 
	C245.730957,293.830292 245.456421,293.640289 245.074173,293.219757 
z"/>
<path fill="#3E1355" opacity="1.000000" stroke="none" 
	d="
M341.084442,293.232056 
	C341.280792,293.133698 341.533417,293.318573 341.865356,293.766418 
	C341.653351,293.903564 341.385345,293.732208 341.084442,293.232056 
z"/>
<path fill="#3E1355" opacity="1.000000" stroke="none" 
	d="
M383.052612,293.810455 
	C383.077972,293.655273 383.396698,293.438171 383.975891,293.093384 
	C383.939575,293.226654 383.642792,293.487610 383.052612,293.810455 
z"/>
<path fill="#3E1355" opacity="1.000000" stroke="none" 
	d="
M292.221130,257.926270 
	C292.157166,257.744568 292.370117,257.491089 292.831116,257.131287 
	C292.841400,257.264435 292.647736,257.540955 292.221130,257.926270 
z"/>
<path fill="#3E1355" opacity="1.000000" stroke="none" 
	d="
M254.898071,239.180557 
	C254.894714,239.327103 254.634644,239.511902 254.157761,239.799225 
	C254.102798,239.605515 254.336273,239.377869 254.898071,239.180557 
z"/>
<path fill="#3E1355" opacity="1.000000" stroke="none" 
	d="
M293.214142,256.930695 
	C293.144958,256.752319 293.344177,256.503510 293.783447,256.152161 
	C293.906647,256.356415 293.726349,256.626617 293.214142,256.930695 
z"/>
<path fill="#3E1355" opacity="1.000000" stroke="none" 
	d="
M340.117859,292.252625 
	C340.329407,292.149780 340.573730,292.342072 340.876221,292.810608 
	C340.659058,292.937714 340.397797,292.757996 340.117859,292.252625 
z"/>
<path fill="#3E1355" opacity="1.000000" stroke="none" 
	d="
M231.179413,292.127258 
	C231.175858,292.002380 231.390625,291.687988 231.811279,291.176880 
	C231.810669,291.299347 231.604202,291.618561 231.179413,292.127258 
z"/>
<path fill="#3E1355" opacity="1.000000" stroke="none" 
	d="
M177.079117,292.234222 
	C177.274017,292.151550 177.528458,292.355347 177.871246,292.821960 
	C177.730713,292.840912 177.457062,292.652863 177.079117,292.234222 
z"/>
<path fill="#3E1355" opacity="1.000000" stroke="none" 
	d="
M195.224976,292.920471 
	C195.139282,292.725464 195.339767,292.469330 195.804047,292.125427 
	C195.825180,292.266815 195.639633,292.540741 195.224976,292.920471 
z"/>
<path fill="#3E1355" opacity="1.000000" stroke="none" 
	d="
M244.075287,292.221344 
	C244.258377,292.155304 244.511932,292.367126 244.869476,292.828857 
	C244.735535,292.840118 244.459641,292.646942 244.075287,292.221344 
z"/>
<path fill="#E8863A" opacity="1.000000" stroke="none" 
	d="
M345.589172,255.581238 
	C347.753387,247.996246 351.525482,244.999008 358.960205,244.897263 
	C366.116730,244.799316 373.277557,244.968170 380.432526,244.823669 
	C383.453857,244.762650 384.977966,245.413971 384.967102,248.917755 
	C384.955475,252.661896 382.907684,252.814545 380.155365,252.788834 
	C373.331085,252.725052 366.505463,252.813171 359.680939,252.764847 
	C356.307526,252.740967 353.559357,253.578568 353.436035,257.520355 
	C353.303802,261.746307 356.117249,262.775421 359.723663,262.758301 
	C365.050201,262.733063 370.380249,262.659912 375.702972,262.812012 
	C383.634430,263.038666 388.801727,268.160645 388.785339,275.554688 
	C388.768829,283.009918 383.684021,288.024414 375.615112,288.149506 
	C365.987030,288.298737 356.354889,288.184631 346.277863,288.184631 
	C346.277863,285.556824 346.277863,283.356140 346.277863,280.342834 
	C353.771698,280.342834 361.207367,280.348816 368.643036,280.339508 
	C371.139465,280.336365 373.859314,280.899628 376.064178,280.085693 
	C377.954437,279.387878 380.498383,277.072845 380.472351,275.511017 
	C380.445557,273.901581 377.793976,271.167877 376.059479,270.971680 
	C370.633453,270.357910 365.097198,270.771484 359.605652,270.673309 
	C349.954041,270.500793 345.442078,265.748077 345.589172,255.581238 
z"/>
<path fill="#E8863A" opacity="1.000000" stroke="none" 
	d="
M249.030151,256.292847 
	C250.899033,248.307693 254.744110,245.016296 262.308380,244.911987 
	C270.756592,244.795517 279.207642,244.885284 287.500366,244.885284 
	C289.103912,252.310516 288.779358,252.747055 282.128387,252.763687 
	C276.130463,252.778687 270.132385,252.787247 264.134552,252.757874 
	C260.610535,252.740616 257.075043,252.889374 257.000183,257.609375 
	C256.919769,262.676636 260.678070,262.766968 264.356201,262.763031 
	C269.354431,262.757690 274.356628,262.654846 279.350006,262.815033 
	C287.318970,263.070648 292.313110,268.162628 292.226440,275.709717 
	C292.142059,283.057983 287.268524,287.968750 279.450623,288.135223 
	C270.790741,288.319641 262.123291,288.121399 253.461029,288.234711 
	C250.657745,288.271393 249.201797,287.651550 249.164795,284.402283 
	C249.124557,280.868866 250.807617,280.267914 253.780014,280.308167 
	C261.775726,280.416382 269.774017,280.325531 277.771240,280.337952 
	C281.247253,280.343353 284.350586,279.724426 284.219971,275.335571 
	C284.100189,271.309479 281.184387,270.675659 277.886993,270.695923 
	C272.888916,270.726685 267.888794,270.774994 262.892578,270.670044 
	C253.731354,270.477600 249.273193,265.944977 249.030151,256.292847 
z"/>
<path fill="#E9873A" opacity="1.000000" stroke="none" 
	d="
M206.982330,277.583252 
	C201.360519,277.583160 196.235855,277.583160 190.706940,277.583160 
	C190.588821,280.188660 190.346100,282.156464 190.447235,284.106506 
	C190.598129,287.015533 189.617203,288.262695 186.481323,288.263153 
	C183.263138,288.263611 182.536499,286.822235 182.592407,284.010193 
	C182.714844,277.851379 182.462326,271.680908 182.717575,265.529907 
	C183.215683,253.526611 191.521210,245.329681 203.488571,244.939209 
	C209.144257,244.754684 214.838989,244.574265 220.456284,245.069534 
	C222.359924,245.237396 225.605637,247.439377 225.647110,248.791306 
	C226.043701,261.713623 225.884094,274.653015 225.884094,287.878082 
	C223.180267,287.878082 221.082626,287.878082 219.074615,287.878082 
	C218.775848,287.503235 218.423782,287.265656 218.388657,286.987915 
	C217.199234,277.585754 217.203598,277.585205 206.982330,277.583252 
M190.917816,262.652344 
	C191.082458,265.120239 188.529694,269.158447 192.839172,269.489594 
	C201.030090,270.119019 209.303711,269.671967 217.578186,269.671967 
	C217.820175,268.183746 218.079071,267.382904 218.060654,266.588440 
	C217.672302,249.848892 221.308136,252.964722 203.999649,252.879623 
	C197.883987,252.849548 193.145187,255.668793 190.917816,262.652344 
z"/>
<path fill="#E8863A" opacity="1.000000" stroke="none" 
	d="
M137.922195,244.156616 
	C153.811920,244.244766 160.246613,250.567596 159.916061,266.135315 
	C159.813263,270.977051 158.851440,276.020844 157.178986,280.565918 
	C152.875519,292.260864 120.434982,292.126648 115.695999,280.439331 
	C111.878685,271.025085 111.426750,261.634094 115.958908,252.520004 
	C118.677826,247.052292 124.013786,244.782883 129.967117,244.262131 
	C132.444885,244.045395 134.953461,244.181015 137.922195,244.156616 
M136.503967,280.989594 
	C138.668320,280.961914 140.847702,281.087036 142.994003,280.875854 
	C147.977921,280.385529 151.705246,277.167450 151.898666,272.307129 
	C152.425552,259.067810 154.115936,250.818665 134.575821,252.068359 
	C134.409943,252.078979 134.242538,252.076920 134.076340,252.069565 
	C128.763214,251.834732 123.315079,252.598557 121.914276,258.425446 
	C120.351830,264.924683 118.610382,272.462006 124.090919,277.785797 
	C126.593079,280.216400 131.663177,280.003448 136.503967,280.989594 
z"/>
<path fill="#E8863A" opacity="1.000000" stroke="none" 
	d="
M314.350708,271.995026 
	C314.351074,264.669891 314.339874,257.843506 314.354919,251.017151 
	C314.369751,244.292816 314.610382,244.117096 321.893188,245.569641 
	C321.893188,259.404510 321.893188,273.314423 321.893188,287.207214 
	C315.389191,289.391113 314.393036,288.764984 314.355652,282.483551 
	C314.335846,279.153748 314.351166,275.823700 314.350708,271.995026 
z"/>
<path fill="#C84B30" opacity="1.000000" stroke="none" 
	d="
M268.591034,164.983749 
	C268.591034,164.983749 268.445831,164.994278 268.006317,165.040527 
	C265.962494,165.636780 264.358154,166.186783 262.096619,166.962112 
	C264.342438,168.356979 265.767242,169.241943 267.613312,170.388535 
	C265.304260,170.785110 263.649384,171.069336 261.662933,171.410507 
	C262.975403,172.956680 263.919525,174.068909 265.503204,175.934555 
	C262.983643,175.311371 261.500153,174.944443 259.687958,174.496216 
	C259.913696,175.925095 260.062683,176.868088 260.009460,178.016479 
	C259.675781,178.362030 259.544342,178.502167 259.175629,178.500015 
	C258.168182,177.965775 257.398041,177.573853 256.413513,177.072830 
	C256.513824,179.209351 256.591156,180.857010 256.703461,183.248993 
	C255.133118,181.533508 254.189453,180.502625 253.173279,179.392532 
	C251.989197,181.496658 250.978836,183.292023 249.968491,185.087402 
	C249.968491,185.087402 250.011597,185.038193 250.019516,184.646729 
	C249.775177,182.498566 249.522919,180.741867 249.270645,178.985153 
	C248.882462,178.960892 248.494278,178.936646 248.106094,178.912384 
	C247.314468,180.620422 246.522827,182.328445 245.731201,184.036484 
	C245.731201,184.036484 245.356918,184.047073 245.119400,183.591919 
	C244.910492,181.080078 244.939102,179.023392 245.024841,176.992828 
	C245.081970,177.018936 245.012054,177.017136 244.698837,177.120972 
	C242.926926,178.153564 241.468231,179.082336 240.005096,180.005951 
	C240.000641,180.000809 239.993149,179.994888 240.039764,179.641281 
	C240.397049,178.095520 240.707733,176.903381 241.053894,175.575027 
	C239.316757,175.437927 238.013672,175.335083 236.454254,175.212006 
	C237.581589,173.739090 238.388992,172.684189 239.404755,171.357056 
	C237.383774,170.941635 235.922607,170.641281 233.688187,170.181992 
	C235.994644,168.994583 237.483170,168.228271 240.095169,166.883575 
	C236.988861,166.037201 235.008118,165.497498 233.027359,164.957809 
	C233.027359,164.957809 233.020294,165.015564 233.349548,164.795837 
	C235.679352,164.178284 237.679901,163.780441 240.189285,163.281418 
	C238.648315,161.640350 237.419235,160.331451 235.449921,158.234207 
	C238.365204,159.006500 240.190979,159.490158 242.020844,160.022552 
	C242.024948,160.071304 241.955460,160.046692 241.990540,159.720825 
	C241.820358,158.476120 241.615082,157.557297 241.298813,156.141617 
	C242.837875,156.509552 243.936127,156.772095 245.048477,157.038010 
	C245.048477,154.814819 245.048477,152.890152 245.029785,150.986298 
	C245.011108,151.007141 244.969986,151.045090 245.246216,151.217499 
	C246.526627,152.698822 247.530823,154.007706 249.344818,156.372147 
	C249.655441,153.040421 249.843246,151.025986 250.031036,149.011536 
	C250.031036,149.011536 249.985672,149.010757 250.255402,149.258972 
	C251.295639,151.546921 252.066162,153.586670 252.982834,156.013367 
	C254.128876,154.454224 255.035263,153.221146 256.666687,151.001633 
	C256.666687,153.789047 256.666687,155.367462 256.666687,157.221924 
	C258.752655,155.959930 260.396851,154.965179 261.979736,154.298798 
	C261.227173,156.184982 260.535889,157.742813 259.818909,159.358597 
	C262.461853,159.216187 264.644165,159.098618 266.826447,158.981049 
	C266.826447,158.981049 266.899567,159.003693 266.588928,159.059845 
	C264.788513,160.280106 263.298767,161.444229 261.360382,162.958908 
	C264.320953,163.787979 266.455994,164.385864 268.591034,164.983749 
M257.750427,168.172882 
	C257.543945,167.034012 257.534210,165.811951 257.094269,164.771835 
	C255.753204,161.601395 253.654190,159.432831 249.829559,160.568359 
	C246.208359,161.643494 243.140839,163.675980 244.040939,167.910263 
	C244.788025,171.424759 247.175125,174.836288 251.220795,173.947769 
	C253.649017,173.414459 255.561920,170.534760 257.750427,168.172882 
M242.428101,174.591888 
	C242.428101,174.591888 242.348938,174.476013 242.428101,174.591888 
M243.557419,171.491257 
	C243.557419,171.491257 243.537766,171.443832 243.557419,171.491257 
z"/>
<path fill="#621433" opacity="1.000000" stroke="none" 
	d="
M260.211639,177.811096 
	C260.062683,176.868088 259.913696,175.925095 259.687958,174.496216 
	C261.500153,174.944443 262.983643,175.311371 265.503204,175.934555 
	C263.919525,174.068909 262.975403,172.956680 261.662933,171.410507 
	C263.649384,171.069336 265.304260,170.785110 267.613312,170.388535 
	C265.767242,169.241943 264.342438,168.356979 262.096619,166.962112 
	C264.358154,166.186783 265.962494,165.636780 267.946289,165.081757 
	C271.230682,169.623779 269.640472,173.458237 266.741882,177.377548 
	C262.566162,183.023697 257.585175,186.666626 250.068390,185.343597 
	C250.978836,183.292023 251.989197,181.496658 253.173279,179.392532 
	C254.189453,180.502625 255.133118,181.533508 256.703461,183.248993 
	C256.591156,180.857010 256.513824,179.209351 256.413513,177.072830 
	C257.398041,177.573853 258.168182,177.965775 259.305847,178.666977 
	C260.076385,179.103973 260.479431,179.231689 260.882477,179.359421 
	C260.658875,178.843307 260.435242,178.327209 260.211639,177.811096 
z"/>
<path fill="#621433" opacity="1.000000" stroke="none" 
	d="
M244.967712,176.966721 
	C244.939102,179.023392 244.910492,181.080078 244.932831,183.576538 
	C244.983780,184.016327 244.978561,183.948669 244.863083,184.114197 
	C244.547638,184.499573 244.349655,184.721176 244.153641,184.944519 
	C237.614258,183.426147 235.801392,177.072495 231.587006,172.797913 
	C231.844345,170.351364 232.359161,168.019104 232.950668,165.322327 
	C235.008118,165.497498 236.988861,166.037201 240.095169,166.883575 
	C237.483170,168.228271 235.994644,168.994583 233.688187,170.181992 
	C235.922607,170.641281 237.383774,170.941635 239.404755,171.357056 
	C238.388992,172.684189 237.581589,173.739090 236.454254,175.212006 
	C238.013672,175.335083 239.316757,175.437927 241.053894,175.575027 
	C240.707733,176.903381 240.397049,178.095520 239.974274,179.656631 
	C239.862167,180.025589 239.907669,180.223999 239.907669,180.223999 
	C239.907669,180.223999 240.009537,180.011108 240.009537,180.011108 
	C241.468231,179.082336 242.926926,178.153564 244.688141,177.108612 
	C244.990646,176.992401 244.967712,176.966721 244.967712,176.966721 
z"/>
<path fill="#621433" opacity="1.000000" stroke="none" 
	d="
M262.041046,153.970459 
	C260.396851,154.965179 258.752655,155.959930 256.666687,157.221924 
	C256.666687,155.367462 256.666687,153.789047 256.666687,151.001633 
	C255.035263,153.221146 254.128876,154.454224 252.982834,156.013367 
	C252.066162,153.586670 251.295639,151.546921 250.265137,149.279999 
	C250.735107,148.472122 251.465088,147.891418 252.489929,147.293060 
	C256.182129,148.921326 259.579468,150.567276 263.033875,152.554779 
	C263.090912,152.896347 262.845795,153.150711 262.670959,153.272308 
	C262.278259,153.581223 262.097595,153.799362 261.975769,154.028732 
	C261.997375,154.009155 262.041046,153.970459 262.041046,153.970459 
z"/>
<path fill="#621433" opacity="1.000000" stroke="none" 
	d="
M267.069214,158.876434 
	C264.644165,159.098618 262.461853,159.216187 259.818909,159.358597 
	C260.535889,157.742813 261.227173,156.184982 261.979736,154.298798 
	C262.041046,153.970459 261.997375,154.009155 262.144714,153.899780 
	C262.510376,153.606384 262.694946,153.393143 262.845795,153.150711 
	C262.845795,153.150711 263.090912,152.896347 263.215790,152.768799 
	C264.664459,154.684784 265.988251,156.728317 267.069214,158.876434 
z"/>
<path fill="#621433" opacity="1.000000" stroke="none" 
	d="
M268.862854,164.901611 
	C266.455994,164.385864 264.320953,163.787979 261.360382,162.958908 
	C263.298767,161.444229 264.788513,160.280106 266.592041,159.021698 
	C267.648773,160.891434 268.391724,162.855438 268.862854,164.901611 
z"/>
<path fill="#621433" opacity="1.000000" stroke="none" 
	d="
M246.073273,184.163910 
	C246.522827,182.328445 247.314468,180.620422 248.106094,178.912384 
	C248.494278,178.936646 248.882462,178.960892 249.270645,178.985153 
	C249.522919,180.741867 249.775177,182.498566 249.987701,184.649292 
	C248.770432,184.792664 247.592896,184.542007 246.073273,184.163910 
z"/>
<path fill="#C84B30" opacity="1.000000" stroke="none" 
	d="
M244.352722,184.829224 
	C244.349655,184.721176 244.547638,184.499573 244.897003,184.114227 
	C244.954987,184.251282 244.790115,184.506348 244.352722,184.829224 
z"/>
<path fill="#C84B30" opacity="1.000000" stroke="none" 
	d="
M239.829834,347.505554 
	C240.737549,347.094910 241.677490,346.598114 241.917007,346.828735 
	C245.357620,350.141785 248.075638,348.371399 250.681763,345.357391 
	C253.649292,347.268066 256.292999,350.921204 260.056641,346.907562 
	C260.263062,346.687408 262.551849,347.772491 263.081268,348.700714 
	C263.531799,349.490662 263.218933,351.297272 262.552887,351.982239 
	C261.864166,352.690521 260.267975,352.953888 259.207031,352.736664 
	C258.196930,352.529846 257.365295,351.451508 256.223175,350.579102 
	C254.494843,351.910736 252.838272,353.187042 250.999847,354.603485 
	C248.304123,352.830566 245.893127,349.153992 242.204971,353.025116 
	C241.928055,353.315796 239.503586,352.372314 239.105042,351.521301 
	C238.649078,350.547638 239.342392,349.035736 239.829834,347.505554 
z"/>
<path fill="#621433" opacity="1.000000" stroke="none" 
	d="
M249.652374,148.978271 
	C249.843246,151.025986 249.655441,153.040421 249.344818,156.372147 
	C247.530823,154.007706 246.526627,152.698822 245.256134,151.181702 
	C244.989838,150.973480 245.048477,150.965469 245.048477,150.965469 
	C245.048477,152.890152 245.048477,154.814819 245.048477,157.038010 
	C243.936127,156.772095 242.837875,156.509552 241.298813,156.141617 
	C241.615082,157.557297 241.820358,158.476120 242.005646,159.702377 
	C241.985672,160.009796 242.016739,159.973816 242.016739,159.973816 
	C240.190979,159.490158 238.365204,159.006500 235.449921,158.234207 
	C237.419235,160.331451 238.648315,161.640350 240.189285,163.281418 
	C237.679901,163.780441 235.679352,164.178284 233.376709,164.785187 
	C233.718140,162.062271 234.123993,159.046448 235.115356,156.237259 
	C235.546310,155.016113 237.180801,154.219711 238.758881,153.252487 
	C239.515701,153.496765 239.782272,153.718948 240.028351,154.038971 
	C240.007858,154.136826 240.247070,154.222900 240.247070,154.222900 
	C240.247070,154.222900 239.963440,154.014725 239.804459,153.811005 
	C239.402817,153.362183 239.160141,153.117081 238.917480,152.871979 
	C241.520111,149.322815 244.903748,147.833359 249.652374,148.978271 
z"/>
<path fill="#5B1234" opacity="1.000000" stroke="none" 
	d="
M191.008499,262.275208 
	C193.145187,255.668793 197.883987,252.849548 203.999649,252.879623 
	C221.308136,252.964722 217.672302,249.848892 218.060654,266.588440 
	C218.079071,267.382904 217.820175,268.183746 217.578186,269.671967 
	C209.303711,269.671967 201.030090,270.119019 192.839172,269.489594 
	C188.529694,269.158447 191.082458,265.120239 191.008499,262.275208 
M198.980301,260.962402 
	C198.980301,260.962402 199.078918,260.974335 198.656189,261.352539 
	C199.162598,262.185150 199.670135,263.734863 200.175232,263.734070 
	C203.471573,263.728851 206.767380,263.387573 210.390793,263.085510 
	C210.390793,263.085510 210.724518,263.056976 211.149521,262.492676 
	C210.303650,261.325439 209.567673,259.291443 208.589508,259.167450 
	C206.405685,258.890533 204.101028,259.566467 201.545868,259.926910 
	C201.545868,259.926910 201.239624,259.963287 200.622421,260.135284 
	C200.068726,260.443481 199.515045,260.751678 198.980301,260.962402 
z"/>
<path fill="#5B1234" opacity="1.000000" stroke="none" 
	d="
M136.036285,280.989532 
	C131.663177,280.003448 126.593079,280.216400 124.090919,277.785797 
	C118.610382,272.462006 120.351830,264.924683 121.914276,258.425446 
	C123.315079,252.598557 128.763214,251.834732 134.076340,252.069565 
	C134.242538,252.076920 134.409943,252.078979 134.575821,252.068359 
	C154.115936,250.818665 152.425552,259.067810 151.898666,272.307129 
	C151.705246,277.167450 147.977921,280.385529 142.994003,280.875854 
	C140.847702,281.087036 138.668320,280.961914 136.036285,280.989532 
M143.981796,260.019470 
	C143.981796,260.019470 143.977356,259.972900 143.649246,259.516846 
	C143.325226,259.329651 143.001221,259.142456 142.437897,258.925903 
	C142.437897,258.925903 142.205246,258.862610 141.427338,258.551788 
	C137.883148,258.656769 134.338974,258.761749 130.570953,258.929626 
	C130.570953,258.929626 130.340286,258.958618 129.827209,259.222595 
	C129.555695,259.488770 129.284180,259.754944 129.000443,259.999207 
	C129.000443,259.999207 129.022079,260.016144 128.598740,260.267670 
	C128.339172,260.478546 128.137451,260.734924 127.980576,260.989990 
	C127.980576,260.989990 128.027740,260.978394 127.648087,261.688110 
	C127.757019,265.125244 127.865959,268.562378 128.003571,272.002228 
	C128.003571,272.002228 127.981087,272.023895 128.170914,272.596985 
	C128.788666,273.066498 129.406433,273.536041 129.993469,274.014435 
	C129.993469,274.014435 129.980896,273.985077 130.707611,274.360504 
	C134.812805,274.232666 138.917984,274.104797 143.006699,274.019989 
	C143.006699,274.019989 142.964096,274.002380 143.539383,273.803375 
	C144.027222,273.195160 144.515060,272.586945 145.010147,272.004639 
	C145.010147,272.004639 144.985138,272.014252 145.379013,271.311493 
	C145.249191,267.868622 145.119370,264.425751 145.011841,260.993286 
	C145.011841,260.993286 145.010620,261.017975 144.774811,260.601410 
	C144.582779,260.334503 144.334030,260.140228 143.981796,260.019470 
z"/>
<path fill="#F0B25D" opacity="1.000000" stroke="none" 
	d="
M257.728424,168.441254 
	C255.561920,170.534760 253.649017,173.414459 251.220795,173.947769 
	C247.175125,174.836288 244.788025,171.424759 244.040939,167.910263 
	C243.140839,163.675980 246.208359,161.643494 249.829559,160.568359 
	C253.654190,159.432831 255.753204,161.601395 257.094269,164.771835 
	C257.534210,165.811951 257.543945,167.034012 257.728424,168.441254 
z"/>
<path fill="#621433" opacity="1.000000" stroke="none" 
	d="
M245.001343,177.004761 
	C245.012054,177.017136 245.081970,177.018936 245.024841,176.992828 
	C244.967712,176.966721 244.990646,176.992401 245.001343,177.004761 
z"/>
<path fill="#621433" opacity="1.000000" stroke="none" 
	d="
M242.388519,174.533951 
	C242.348938,174.476013 242.428101,174.591888 242.388519,174.533951 
z"/>
<path fill="#F0B25D" opacity="1.000000" stroke="none" 
	d="
M243.547592,171.467545 
	C243.537766,171.443832 243.557419,171.491257 243.547592,171.467545 
z"/>
<path fill="#621433" opacity="1.000000" stroke="none" 
	d="
M241.970566,160.028244 
	C241.955460,160.046692 242.024948,160.071304 242.020844,160.022552 
	C242.016739,159.973816 241.985672,160.009796 241.970566,160.028244 
z"/>
<path fill="#C84B30" opacity="1.000000" stroke="none" 
	d="
M260.009460,178.016479 
	C260.435242,178.327209 260.658875,178.843307 260.882477,179.359421 
	C260.479431,179.231689 260.076385,179.103973 259.543152,178.809280 
	C259.544342,178.502167 259.675781,178.362030 260.009460,178.016479 
z"/>
<path fill="#C84B30" opacity="1.000000" stroke="none" 
	d="
M240.005096,180.005951 
	C240.009537,180.011108 239.907669,180.223999 239.907669,180.223999 
	C239.907669,180.223999 239.862167,180.025589 239.927658,180.010239 
	C239.993149,179.994888 240.000641,180.000809 240.005096,180.005951 
z"/>
<path fill="#C84B30" opacity="1.000000" stroke="none" 
	d="
M262.670959,153.272308 
	C262.694946,153.393143 262.510376,153.606384 262.123108,153.919373 
	C262.097595,153.799362 262.278259,153.581223 262.670959,153.272308 
z"/>
<path fill="#C84B30" opacity="1.000000" stroke="none" 
	d="
M240.048843,153.941132 
	C239.782272,153.718948 239.515701,153.496765 239.050568,153.102982 
	C238.852005,152.931381 238.919128,152.939819 238.918304,152.905899 
	C239.160141,153.117081 239.402817,153.362183 239.826202,153.793076 
	C240.006927,153.978867 240.048843,153.941132 240.048843,153.941132 
z"/>
<path fill="#C84B30" opacity="1.000000" stroke="none" 
	d="
M245.029785,150.986298 
	C245.048477,150.965469 244.989838,150.973480 244.979919,151.009277 
	C244.969986,151.045090 245.011108,151.007141 245.029785,150.986298 
z"/>
<path fill="#C84B30" opacity="1.000000" stroke="none" 
	d="
M239.985184,153.996796 
	C239.963440,154.014725 240.247070,154.222900 240.247070,154.222900 
	C240.247070,154.222900 240.007858,154.136826 240.028351,154.038971 
	C240.048843,153.941132 240.006927,153.978867 239.985184,153.996796 
z"/>
<path fill="#000000" opacity="1.000000" stroke="none" 
	d="
M201.239624,259.963287 
	C201.239624,259.963287 201.545868,259.926910 202.153503,259.934692 
	C204.523193,259.987610 206.399063,259.680389 208.007828,260.200073 
	C209.106369,260.554901 209.832092,262.063965 210.724518,263.056976 
	C210.724518,263.056976 210.390793,263.085510 209.766647,263.080536 
	C205.787979,262.375153 202.433441,261.674744 199.078918,260.974335 
	C199.078918,260.974335 198.980301,260.962402 199.289215,260.949280 
	C200.145294,260.611877 200.692459,260.287567 201.239624,259.963287 
z"/>
<path fill="#3E1355" opacity="1.000000" stroke="none" 
	d="
M198.867554,261.163452 
	C202.433441,261.674744 205.787979,262.375153 209.602936,263.115875 
	C206.767380,263.387573 203.471573,263.728851 200.175232,263.734070 
	C199.670135,263.734863 199.162598,262.185150 198.867554,261.163452 
z"/>
<path fill="#3E1355" opacity="1.000000" stroke="none" 
	d="
M210.937012,262.774841 
	C209.832092,262.063965 209.106369,260.554901 208.007828,260.200073 
	C206.399063,259.680389 204.523193,259.987610 202.303375,259.898315 
	C204.101028,259.566467 206.405685,258.890533 208.589508,259.167450 
	C209.567673,259.291443 210.303650,261.325439 210.937012,262.774841 
z"/>
<path fill="#3E1355" opacity="1.000000" stroke="none" 
	d="
M200.931030,260.049286 
	C200.692459,260.287567 200.145294,260.611877 199.279755,260.998047 
	C199.515045,260.751678 200.068726,260.443481 200.931030,260.049286 
z"/>
<path fill="#000000" opacity="1.000000" stroke="none" 
	d="
M130.340286,258.958618 
	C130.340286,258.958618 130.570953,258.929626 131.165375,258.937256 
	C135.241608,258.917480 138.723434,258.890045 142.205246,258.862610 
	C142.205246,258.862610 142.437897,258.925903 142.742004,259.152954 
	C143.356537,259.577667 143.666946,259.775269 143.977356,259.972900 
	C143.977356,259.972900 143.981796,260.019470 144.114380,260.233459 
	C144.446793,260.710876 144.701340,260.901062 145.010620,261.017975 
	C145.010620,261.017975 145.011841,260.993286 144.997223,261.447693 
	C144.983459,265.272827 144.984299,268.643555 144.985138,272.014252 
	C144.985138,272.014252 145.010147,272.004639 144.738617,272.115936 
	C143.966080,272.818970 143.465088,273.410675 142.964111,274.002380 
	C142.964096,274.002380 143.006699,274.019989 142.549454,273.999969 
	C138.055099,273.981659 134.018005,273.983368 129.980896,273.985077 
	C129.980896,273.985077 129.993469,274.014435 129.878662,273.751312 
	C129.169601,273.000092 128.575348,272.511993 127.981094,272.023895 
	C127.981087,272.023895 128.003571,272.002228 128.000427,271.543549 
	C128.007431,267.716034 128.017578,264.347229 128.027740,260.978394 
	C128.027740,260.978394 127.980576,260.989990 128.224426,260.918945 
	C128.652878,260.570618 128.837479,260.293396 129.022079,260.016144 
	C129.022079,260.016144 129.000443,259.999207 129.272827,259.898010 
	C129.810226,259.517426 130.075256,259.238007 130.340286,258.958618 
z"/>
<path fill="#3E1355" opacity="1.000000" stroke="none" 
	d="
M130.344254,274.172791 
	C134.018005,273.983368 138.055099,273.981659 142.557693,273.978455 
	C138.917984,274.104797 134.812805,274.232666 130.344254,274.172791 
z"/>
<path fill="#3E1355" opacity="1.000000" stroke="none" 
	d="
M141.816284,258.707214 
	C138.723434,258.890045 135.241608,258.917480 131.277283,258.905823 
	C134.338974,258.761749 137.883148,258.656769 141.816284,258.707214 
z"/>
<path fill="#3E1355" opacity="1.000000" stroke="none" 
	d="
M127.837914,261.333252 
	C128.017578,264.347229 128.007431,267.716034 127.986084,271.542175 
	C127.865959,268.562378 127.757019,265.125244 127.837914,261.333252 
z"/>
<path fill="#3E1355" opacity="1.000000" stroke="none" 
	d="
M145.182068,271.662872 
	C144.984299,268.643555 144.983459,265.272827 144.986084,261.442505 
	C145.119370,264.425751 145.249191,267.868622 145.182068,271.662872 
z"/>
<path fill="#3E1355" opacity="1.000000" stroke="none" 
	d="
M128.076004,272.310425 
	C128.575348,272.511993 129.169601,273.000092 129.894012,273.746887 
	C129.406433,273.536041 128.788666,273.066498 128.076004,272.310425 
z"/>
<path fill="#3E1355" opacity="1.000000" stroke="none" 
	d="
M143.251740,273.902893 
	C143.465088,273.410675 143.966080,272.818970 144.734985,272.102966 
	C144.515060,272.586945 144.027222,273.195160 143.251740,273.902893 
z"/>
<path fill="#3E1355" opacity="1.000000" stroke="none" 
	d="
M130.083740,259.090607 
	C130.075256,259.238007 129.810226,259.517426 129.278931,259.908966 
	C129.284180,259.754944 129.555695,259.488770 130.083740,259.090607 
z"/>
<path fill="#3E1355" opacity="1.000000" stroke="none" 
	d="
M143.813293,259.744873 
	C143.666946,259.775269 143.356537,259.577667 142.861664,259.167664 
	C143.001221,259.142456 143.325226,259.329651 143.813293,259.744873 
z"/>
<path fill="#3E1355" opacity="1.000000" stroke="none" 
	d="
M128.810410,260.141907 
	C128.837479,260.293396 128.652878,260.570618 128.230927,260.942322 
	C128.137451,260.734924 128.339172,260.478546 128.810410,260.141907 
z"/>
<path fill="#3E1355" opacity="1.000000" stroke="none" 
	d="
M144.892715,260.809692 
	C144.701340,260.901062 144.446793,260.710876 144.137772,260.233032 
	C144.334030,260.140228 144.582779,260.334503 144.892715,260.809692 
z"/>
</svg>