<?xml version="1.0" standalone="no"?>
<!DOCTYPE svg PUBLIC "-//W3C//DTD SVG 20010904//EN"
 "http://www.w3.org/TR/2001/REC-SVG-20010904/DTD/svg10.dtd">
<svg version="1.0" xmlns="http://www.w3.org/2000/svg"
 width="499.000000pt" height="500.000000pt" viewBox="0 0 499.000000 500.000000"
 preserveAspectRatio="xMidYMid meet">

<g transform="translate(0.000000,500.000000) scale(0.100000,-0.100000)"
fill="#000000" stroke="none">
<path d="M2474 3535 c-5 -12 -10 -13 -20 -4 -17 14 -44 5 -44 -16 0 -9 -9 -15
-25 -15 -22 0 -30 -9 -26 -32 0 -5 -5 -8 -13 -8 -22 0 -41 -29 -28 -42 8 -8 5
-16 -11 -28 -18 -15 -19 -20 -9 -33 11 -13 11 -19 0 -37 -11 -18 -11 -23 3
-33 9 -7 16 -23 15 -36 -1 -17 6 -27 19 -30 11 -4 20 -15 20 -26 0 -15 7 -20
28 -20 19 1 27 -4 27 -16 0 -21 24 -31 39 -16 8 8 16 6 29 -6 17 -15 21 -16
31 -3 9 10 22 13 42 9 22 -4 30 -1 36 13 5 12 18 19 33 19 18 0 25 5 25 20 0
11 9 22 20 26 13 3 20 13 19 30 -1 13 6 29 15 36 14 10 14 15 3 34 -10 15 -11
24 -3 32 17 17 13 35 -8 42 -13 4 -17 12 -13 31 3 19 0 26 -16 31 -11 3 -18
11 -16 17 6 16 -21 39 -38 34 -7 -3 -20 5 -29 16 -14 17 -19 18 -32 8 -11 -10
-17 -9 -27 3 -16 19 -39 19 -46 0z m16 -130 c0 6 9 11 20 11 11 0 20 -6 20
-14 0 -7 3 -11 8 -9 9 6 33 -19 25 -27 -4 -3 -2 -6 3 -6 5 0 10 -9 10 -20 0
-11 -4 -20 -9 -20 -4 0 -5 -5 -2 -10 7 -12 -20 -42 -29 -33 -3 4 -6 0 -6 -7 0
-7 -3 -10 -7 -7 -3 4 -12 2 -20 -4 -10 -9 -13 -8 -13 0 0 7 -4 9 -10 6 -5 -3
-10 -2 -10 4 0 6 -7 8 -15 5 -11 -5 -13 -2 -9 10 5 13 2 15 -12 9 -17 -6 -17
-5 -5 10 12 15 11 17 -5 18 -11 0 -14 3 -7 5 7 3 10 11 7 18 -3 8 2 20 10 29
8 8 12 18 8 22 -4 5 1 5 11 2 12 -5 17 -1 17 11 0 15 2 15 10 2 5 -8 10 -10
10 -5z"/>
<path d="M2000 2860 c0 -5 5 -10 11 -10 5 0 7 5 4 10 -3 6 -8 10 -11 10 -2 0
-4 -4 -4 -10z"/>
<path d="M2203 2863 c9 -2 25 -2 35 0 9 3 1 5 -18 5 -19 0 -27 -2 -17 -5z"/>
<path d="M2465 2860 c-4 -6 6 -7 27 -3 44 8 48 13 10 13 -17 0 -34 -4 -37 -10z"/>
<path d="M3017 2860 c16 -7 21 -14 16 -27 -5 -14 -3 -16 7 -6 18 17 5 43 -22
42 l-23 0 22 -9z"/>
<path d="M2753 2819 c2 -33 0 -37 -20 -34 -13 1 -26 -2 -29 -6 -3 -5 9 -9 26
-9 36 0 44 14 30 55 l-10 30 3 -36z"/>
<path d="M2195 2830 c3 -5 8 -10 11 -10 2 0 4 5 4 10 0 6 -5 10 -11 10 -5 0
-7 -4 -4 -10z"/>
<path d="M2715 2820 c-3 -6 1 -7 9 -4 18 7 21 14 7 14 -6 0 -13 -4 -16 -10z"/>
<path d="M2986 2821 c-4 -5 -2 -12 3 -15 5 -4 12 -2 15 3 4 5 2 12 -3 15 -5 4
-12 2 -15 -3z"/>
<path d="M2845 2810 c-4 -6 -5 -10 -3 -11 31 -6 68 -4 68 4 0 6 -3 8 -6 4 -3
-3 -17 -2 -30 3 -14 6 -26 6 -29 0z"/>
<path d="M2517 2793 c-13 -13 -19 -14 -31 -4 -11 9 -16 9 -22 0 -4 -8 -3 -9 4
-5 7 4 12 2 12 -3 0 -16 36 -13 50 4 18 22 7 28 -13 8z"/>
<path d="M1995 2789 c-4 -6 -13 -8 -21 -5 -7 3 -16 1 -19 -4 -4 -6 5 -10 18
-10 14 0 27 7 31 15 6 17 0 20 -9 4z"/>
<path d="M2186 2779 c7 -11 51 -12 58 -1 3 4 -11 9 -30 9 -18 1 -31 -3 -28 -8z"/>
<path d="M2340 2778 c0 -11 38 -10 44 1 3 5 -5 8 -19 7 -14 0 -25 -4 -25 -8z"/>
<path d="M2830 2780 c0 -5 5 -10 11 -10 5 0 7 5 4 10 -3 6 -8 10 -11 10 -2 0
-4 -4 -4 -10z"/>
<path d="M3035 2780 c3 -5 8 -10 11 -10 2 0 4 5 4 10 0 6 -5 10 -11 10 -5 0
-7 -4 -4 -10z"/>
<path d="M1217 2616 c-59 -22 -103 -61 -131 -118 -23 -46 -26 -64 -26 -152 1
-148 35 -215 135 -262 43 -21 65 -24 160 -24 95 0 117 3 160 24 99 46 134 114
135 255 0 110 -12 157 -52 206 -52 63 -97 79 -228 82 -80 2 -126 -1 -153 -11z
m283 -78 c63 -43 89 -101 90 -196 1 -165 -99 -239 -290 -217 -102 12 -162 70
-174 168 -15 115 13 197 83 244 30 21 46 23 146 23 100 0 116 -2 145 -22z"/>
<path d="M1229 2461 c-28 -28 -29 -34 -29 -116 0 -82 1 -88 29 -116 28 -28 33
-29 125 -29 92 0 97 1 128 29 32 29 33 31 33 116 0 85 -1 87 -33 116 -31 28
-36 29 -128 29 -92 0 -97 -1 -125 -29z m205 -47 c11 -10 16 -34 16 -69 0 -72
-14 -85 -95 -85 -81 0 -95 13 -95 85 0 72 14 85 95 85 44 0 68 -5 79 -16z"/>
<path d="M1923 2604 c-54 -20 -119 -83 -146 -142 -17 -38 -21 -73 -25 -187 -5
-166 2 -190 55 -204 40 -11 110 -5 131 12 7 5 15 27 18 48 l7 39 73 0 74 0 0
-33 c0 -51 24 -67 102 -67 101 0 98 -7 98 264 l0 228 -29 29 -29 29 -144 -1
c-99 0 -156 -5 -185 -15z m311 -60 c14 -13 16 -47 16 -215 l0 -200 -37 3 -36
3 -1 50 -1 50 -142 3 -143 3 0 -56 0 -55 -35 0 -35 0 0 123 c0 67 5 139 11
160 15 56 72 114 128 131 67 21 255 21 275 0z"/>
<path d="M1985 2478 c-59 -21 -95 -71 -95 -133 l0 -36 143 3 142 3 3 65 c5
109 4 110 -86 109 -42 0 -90 -5 -107 -11z m123 -80 c-3 -21 -9 -23 -70 -26
-55 -2 -68 0 -68 12 0 23 30 35 88 36 50 0 53 -2 50 -22z"/>
<path d="M2530 2609 c-32 -13 -78 -56 -96 -91 -32 -61 -13 -169 39 -225 12
-14 15 -23 8 -23 -6 0 -23 -11 -36 -25 -33 -32 -36 -120 -6 -156 19 -24 22
-24 209 -24 l189 1 48 29 c60 37 88 88 88 159 0 58 -22 110 -61 143 l-26 22
23 18 c24 20 38 84 27 127 -13 53 -23 56 -209 55 -95 0 -183 -5 -197 -10z
m340 -84 l0 -35 -142 -2 c-95 -1 -115 -3 -61 -5 l83 -4 6 -39 c4 -24 13 -41
23 -43 9 -3 -31 -5 -89 -6 -72 -1 -110 3 -120 12 -12 10 -12 9 -1 -5 11 -15
31 -18 131 -18 105 0 120 -2 151 -23 45 -30 61 -63 56 -115 -10 -92 -55 -112
-262 -112 l-155 0 0 35 0 35 153 0 c122 0 157 3 175 16 27 19 28 48 2 74 -18
18 -33 20 -141 20 l-121 0 -33 33 c-44 44 -53 93 -29 144 31 62 65 73 232 73
l142 0 0 -35z m-142 -267 c-3 -7 -15 -13 -28 -13 -13 0 -25 6 -27 13 -3 8 6
12 27 12 21 0 30 -4 28 -12z"/>
<path d="M3090 2600 c-19 -19 -20 -33 -20 -254 0 -214 2 -236 19 -257 16 -20
27 -23 74 -22 74 2 92 8 105 39 16 34 16 447 1 477 -18 33 -28 37 -96 37 -50
0 -67 -4 -83 -20z m120 -255 l0 -215 -35 0 -35 0 0 215 0 215 35 0 35 0 0
-215z"/>
<path d="M3483 2601 c-108 -50 -135 -201 -52 -296 l29 -33 -26 -6 c-44 -11
-66 -89 -43 -154 17 -50 56 -56 262 -46 170 9 175 10 212 38 92 70 100 200 17
288 l-26 28 22 23 c18 19 22 35 22 84 0 92 -2 93 -206 93 -144 0 -175 -3 -211
-19z m347 -76 l0 -35 -133 0 c-149 0 -177 -9 -177 -59 0 -46 14 -51 138 -51
129 0 173 -14 197 -61 19 -37 19 -92 -1 -130 -25 -50 -63 -59 -244 -59 l-160
0 0 35 0 35 156 0 c88 0 164 4 175 10 23 13 26 62 3 84 -12 13 -39 16 -130 16
-129 0 -164 11 -189 60 -22 43 -19 102 7 135 36 46 70 54 221 55 l137 0 0 -35z
m-261 -74 c11 -16 18 -17 37 -9 25 12 74 3 74 -12 0 -6 -20 -10 -44 -10 -70 0
-65 -19 6 -23 45 -3 39 -3 -22 -3 -81 1 -85 2 -88 24 -4 27 4 52 15 52 5 0 15
-9 22 -19z m111 -190 c0 -12 -37 -24 -50 -16 -20 12 -10 25 20 25 17 0 30 -4
30 -9z"/>
<path d="M2001 1886 c-1 -24 -3 -27 -16 -16 -21 17 -19 -3 3 -27 9 -10 13 -14
9 -7 -4 7 -3 14 3 16 7 2 10 16 7 33 l-4 30 -2 -29z"/>
<path d="M2085 1888 c-6 -29 -3 -68 6 -68 4 0 6 20 5 45 -1 50 -3 55 -11 23z"/>
<path d="M2188 1903 c6 -2 18 -2 25 0 6 3 1 5 -13 5 -14 0 -19 -2 -12 -5z"/>
<path d="M2291 1864 c0 -35 3 -43 8 -29 5 11 7 23 5 27 -2 3 6 4 18 1 20 -5
21 -4 8 8 -8 8 -21 20 -27 28 -11 12 -13 6 -12 -35z"/>
<path d="M2347 1903 c-3 -5 -1 -26 3 -48 l8 -40 1 48 c1 45 -2 56 -12 40z"/>
<path d="M2428 1903 c7 -3 12 -21 12 -44 0 -21 5 -39 10 -39 6 0 10 18 10 39
0 23 5 41 13 44 6 2 -4 4 -23 4 -19 0 -29 -2 -22 -4z"/>
<path d="M2625 1899 c-12 -18 3 -22 20 -5 14 14 14 16 1 16 -8 0 -18 -5 -21
-11z"/>
<path d="M2748 1875 c2 -19 6 -35 8 -35 2 0 4 16 4 35 0 19 -4 35 -8 35 -4 0
-6 -16 -4 -35z"/>
<path d="M2910 1875 c0 -22 -6 -38 -17 -44 -12 -7 -13 -11 -5 -11 23 0 42 27
42 59 0 17 -4 31 -10 31 -5 0 -10 -16 -10 -35z"/>
<path d="M2991 1864 c2 -39 6 -44 26 -44 13 0 23 4 23 9 0 5 -7 8 -16 7 -9 0
-19 5 -22 13 -3 10 2 13 22 9 24 -5 27 -3 24 21 -2 21 -9 26 -31 27 -27 1 -28
-1 -26 -42z m39 26 c0 -5 -7 -10 -16 -10 -8 0 -12 5 -9 10 3 6 10 10 16 10 5
0 9 -4 9 -10z"/>
<path d="M1944 1866 c-3 -8 -4 -23 -2 -33 3 -11 6 -6 9 15 6 34 2 42 -7 18z"/>
<path d="M2213 1853 c4 -19 2 -21 -20 -12 -33 12 -37 11 -19 -6 8 -8 22 -15
31 -15 21 0 31 28 15 43 -10 10 -12 7 -7 -10z"/>
<path d="M2634 1835 c17 -18 46 -20 46 -4 0 6 -7 9 -15 6 -8 -4 -17 -2 -20 3
-4 6 -11 10 -16 10 -6 0 -4 -7 5 -15z"/>
<path d="M2763 1823 c9 -2 23 -2 30 0 6 3 -1 5 -18 5 -16 0 -22 -2 -12 -5z"/>
<path d="M2468 1563 c-14 -13 -20 -14 -32 -4 -22 19 -56 9 -79 -21 -19 -25
-19 -28 -3 -52 19 -31 60 -43 81 -26 13 10 19 10 33 -4 23 -20 41 -20 62 -1
14 13 22 14 44 4 23 -11 30 -10 54 8 35 26 38 43 12 76 -22 28 -58 35 -78 15
-9 -9 -16 -8 -30 5 -24 21 -43 21 -64 0z m-53 -63 c-5 -8 -11 -8 -17 -2 -6 6
-7 16 -3 22 5 8 11 8 17 2 6 -6 7 -16 3 -22z m100 10 c0 -8 -8 -16 -17 -18
-13 -2 -18 3 -18 18 0 15 5 20 18 18 9 -2 17 -10 17 -18z m90 -10 c-5 -8 -11
-8 -17 -2 -6 6 -7 16 -3 22 5 8 11 8 17 2 6 -6 7 -16 3 -22z"/>
</g>
</svg>
